
        <svg xmlns="http://www.w3.org/2000/svg" xmlns:xlink="http://www.w3.org/1999/xlink" version="1.1" width="3168.331512546455" 
        height="812.0674736234033" viewBox="0 0 3168.331512546455 812.0674736234033">
			
			<g transform="scale(8.416575627322764) translate(10, 10)">
				<defs id="SvgjsDefs1016"></defs><g id="SvgjsG1017" featureKey="Df7oLJ-0" transform="matrix(0.8485543014492631,0,0,0.8485543014492631,-7.718406796490644,-4.467768167569309)" fill="#ffffff"><g xmlns="http://www.w3.org/2000/svg"><path d="M38,6.2c2.9-0.6,5.8-0.8,8.8-0.9c4.2-0.1,8.5,0,12.7,0.5c1.6,0.2,3.3,0.5,4.8,1.2c0.4,0.2,1,0.5,1.1,1c0,2.1,0,4.2,0,6.4   c2.3,0.2,4.5,0.3,6.8,0.6c1.5,0.2,3.1,0.4,4.6,0.8c0.7,0.2,1.3,0.3,2,0.6c0.2,0.1,0.5,0.3,0.6,0.5c0.1,0.2-0.1,0.4-0.3,0.6   c-0.4,0.3-0.9,0.4-1.3,0.6c-1.2,0.4-2.4,0.6-3.7,0.8c-2.4,0.4-4.8,0.6-7.2,0.8c1.6,1.5,2.9,3.3,3.9,5.2c6.5-1.9,13-3.7,19.5-5.6   c-0.7,7.1-1.5,14.2-2.2,21.3c1,0.8,1.8,1.9,2.3,3.1c0.8,1.8,1.2,3.7,1.3,5.7c0.1,2-0.1,4-0.5,6c-0.5,2.5-1.5,5.1-3.2,7.1   c-0.7,0.8-1.5,1.5-2.4,1.9c-0.6,6-1.2,11.9-1.9,17.9c-13.5,4.4-27,8.8-40.6,13.1c-8.5-4.5-17-9-25.5-13.5   c-0.6-5.8-1.2-11.5-1.8-17.3c-1.4-0.3-2.6-1.4-3.5-2.5c-1.7-2.1-2.5-4.8-2.9-7.4C9.1,52.4,9,50.2,9.2,48c0.3-2,0.8-4,2-5.8   c0.6-0.8,1.3-1.6,2.1-2.1c-0.7-7-1.5-13.9-2.2-20.9c5.6,2.3,11.2,4.6,16.8,7c1.1-2.5,2.7-4.8,4.7-6.7c-2.8-0.2-5.7-0.5-8.4-1.1   c-0.9-0.2-1.7-0.4-2.5-0.8c-0.2-0.1-0.5-0.4-0.4-0.7c0.2-0.3,0.6-0.5,0.9-0.6c1.1-0.4,2.2-0.6,3.4-0.8c2.8-0.5,5.7-0.7,8.5-1   c0-2.1,0-4.2,0-6.3c0-0.5,0.4-0.7,0.8-0.9C35.9,6.7,37,6.5,38,6.2 M43.5,35.1c0,19.1,0,38.3,0,57.4c12.6-4.1,25.2-8.2,37.9-12.3   c0.5-5.2,1.1-10.5,1.6-15.7c-2.8-0.3-5.6-0.5-8.4-0.8c-0.8-0.1-1.5-0.1-2.2-0.4c-1.2-0.5-2.2-1.7-2.4-3.1c-0.2-1,0.1-2.1,0.6-2.9   c-1-0.6-1.7-1.6-1.9-2.7c-0.2-1.1,0-2.3,0.7-3.2c-0.7-0.5-1.3-1.2-1.5-2.1c-0.4-1.1-0.2-2.3,0.3-3.3c0.6-1,1.5-1.7,2.6-2   c-0.4-1.1-0.3-2.4,0.3-3.4c0.6-1.1,1.8-1.9,3.1-2.1c0.5-0.1,1.1,0,1.6,0.1c3.3,0.3,6.6,0.6,9.9,0.9c0.6-5.7,1.2-11.4,1.8-17.1   C72.8,26.8,58.1,30.9,43.5,35.1 M36.4,23.1c-1.2,0.5-2.1,1.5-2.4,2.7c-0.3,1-0.2,2,0.2,2.9c1.8,0.7,3.5,1.5,5.3,2.2   c1-0.4,1.9-1.2,2.3-2.1c-0.5,0.1-0.9,0-1.4-0.2c-0.7-0.3-1.1-1-1.2-1.7c-0.1-0.7,0.3-1.5,0.9-1.9c0.4-0.3,0.9-0.4,1.4-0.4   c-0.4-0.6-0.9-1-1.5-1.4C39,22.7,37.6,22.6,36.4,23.1 M50.2,23.9c-0.9,0.9-1.4,2.2-1.3,3.4c0.1,1.2,0.8,2.4,1.8,3.1   c1.9-0.5,3.8-1.1,5.6-1.6c-0.8,0-1.6-0.6-1.9-1.3c-0.3-0.7-0.1-1.6,0.4-2.2c0.4-0.5,1.1-0.7,1.7-0.7c-0.7-1-1.8-1.7-2.9-1.8   C52.4,22.6,51.1,23.1,50.2,23.9 M14.1,23.1c0.6,5.5,1.1,11,1.7,16.4c3.2-0.3,6.3-0.5,9.5-0.8c0.5,0,1-0.1,1.4,0   c1.3,0.1,2.4,0.9,3.1,2c0.6,1,0.7,2.4,0.3,3.5c0.9,0.2,1.8,0.8,2.3,1.6c0.7,0.9,0.9,2.1,0.7,3.2c-0.2,1-0.8,2-1.7,2.6   c0.7,0.9,0.9,2.2,0.6,3.3c-0.3,1.1-1,2-1.9,2.5c0.7,1,0.8,2.3,0.5,3.4c-0.5,1.5-1.9,2.7-3.5,2.8c-2.9,0.2-5.8,0.5-8.6,0.7   c0.5,5.3,1.1,10.5,1.7,15.8C27.5,84.1,34.9,88,42.3,92c0-19.1,0-38.1,0-57.2C32.9,30.9,23.5,27,14.1,23.1 M25.9,41.2   c-3.7,0.3-7.3,0.6-11,0.9c-0.2,0-0.4,0.2-0.6,0.3c-0.6,0.4-1,1-1.3,1.6c-0.7,1.2-1.1,2.6-1.3,3.9c-0.3,1.8-0.2,3.7,0,5.5   c0.2,1.7,0.6,3.4,1.3,4.9c0.6,1.2,1.3,2.3,2.3,3.1c0.4,0.3,0.8,0.6,1.3,0.5c3.4-0.3,6.7-0.5,10.1-0.8c0.7-0.1,1.3-0.7,1.4-1.4   c0.1-0.7-0.4-1.4-1.1-1.6c-0.3-0.1-0.7-0.1-1,0c-2.4,0.2-4.9,0.4-7.3,0.6c-0.6,0.1-1.3-0.4-1.4-1.1c-0.1-0.7,0.4-1.4,1.1-1.4   c3.2-0.3,6.4-0.5,9.6-0.8c0.5,0,1-0.4,1.3-0.8c0.2-0.5,0.2-1,0-1.5c-0.3-0.5-0.9-0.8-1.5-0.8c-3.2,0.3-6.4,0.5-9.6,0.8   c-0.6,0.1-1.3-0.5-1.3-1.1c-0.1-0.7,0.5-1.3,1.1-1.4c3.7-0.3,7.4-0.6,11.1-0.9c0.9-0.1,1.6-1.1,1.4-2c-0.2-0.7-0.9-1.2-1.6-1.1   c-3.6,0.3-7.1,0.6-10.7,0.9c-0.3,0-0.7,0.1-1-0.1c-0.5-0.2-0.8-0.8-0.8-1.3c0.1-0.6,0.6-1,1.2-1.1c2.9-0.2,5.7-0.5,8.6-0.7   c0.9,0,1.6-0.8,1.5-1.7C27.7,41.8,26.8,41.1,25.9,41.2 M74.2,41.2c-0.6,0.2-1.1,0.8-1.1,1.5c0,0.8,0.6,1.5,1.4,1.5   c2.8,0.3,5.6,0.5,8.5,0.8c0.3,0,0.6,0.1,0.9,0.3c0.5,0.4,0.6,1.1,0.3,1.7c-0.3,0.4-0.7,0.6-1.2,0.6c-3.7-0.4-7.4-0.7-11.1-1.1   c-0.8-0.1-1.6,0.6-1.6,1.4c-0.1,0.8,0.6,1.6,1.4,1.7c3.7,0.4,7.4,0.7,11.1,1.1c0.5,0,1,0.5,1.1,1c0.1,0.6-0.2,1.2-0.8,1.4   c-0.3,0.1-0.6,0.1-0.9,0c-3.1-0.3-6.1-0.6-9.2-0.9c-0.3,0-0.6,0-0.9,0.2c-0.6,0.3-0.9,1-0.8,1.6c0.1,0.7,0.7,1.3,1.4,1.3   c3.2,0.3,6.4,0.6,9.6,0.9c0.6,0.1,1,0.6,1.1,1.2c0,0.5-0.3,1.1-0.8,1.3c-0.3,0.1-0.7,0.1-1,0c-2.4-0.2-4.9-0.5-7.3-0.7   c-0.8-0.1-1.5,0.5-1.6,1.3c-0.1,0.6,0.2,1.3,0.8,1.6c0.3,0.2,0.6,0.2,1,0.2c3.2,0.3,6.3,0.6,9.5,0.9c0.2,0,0.5,0.1,0.7,0   c0.7-0.2,1.2-0.7,1.7-1.2c1-1,1.6-2.3,2.1-3.7c0.6-1.8,0.9-3.7,1.1-5.6c0.1-2,0-4.1-0.7-6c-0.4-1-0.9-2.1-1.7-2.8   c-0.3-0.2-0.6-0.5-0.9-0.5c-3.5-0.3-7-0.7-10.5-1C74.9,41.2,74.5,41.1,74.2,41.2z"></path></g></g><g id="SvgjsG1018" featureKey="Ua4uQk-0" transform="matrix(2.047329800688843,0,0,2.047329800688843,89.1810688607188,11.412111688013034)" fill="#eee40a"><path d="M12.36 6 l3.42 0 l-6.22 14 l-2.94 0 l-6.22 -14 l3.42 0 l4.28 10.1 z M20.18 5.859999999999999 l0 2.66 l-3.16 0 l0 -2.66 l3.16 0 z M20.18 9.6 l0 10.4 l-3.16 0 l0 -10.4 l3.16 0 z M28.9 9.44 c0.28 0 0.56 0 0.82 0.06 l0 3.02 c-0.24 -0.06 -0.52 -0.06 -0.72 -0.06 c-1.92 0 -3.46 1.38 -3.62 3.3 l0 4.24 l-3.16 0 l0 -10.4 l3.16 0 l0 2.54 c0.48 -1.56 1.68 -2.7 3.52 -2.7 z M36.6 17.36 c0.56 0 0.96 -0.08 1.4 -0.2 l0 2.62 c-0.44 0.2 -1.16 0.34 -2.22 0.34 c-1.74 0 -3.2 -0.58 -3.2 -3.78 l0 -4.14 l-1.46 0 l0 -2.6 l1.46 0 l0 -2.44 l3.16 0 l0 2.44 l2.22 0 l0 2.6 l-2.22 0 l0 4.14 c0 0.46 0.12 1.02 0.86 1.02 z M43.48 20.16 c-1.94 0 -3.92 -1.3 -3.92 -4.6 l0 -5.96 l3.16 0 l0 5.74 c0 1.58 0.54 2.08 1.54 2.08 c1.42 0 2.24 -1.38 2.44 -1.98 l0 -5.84 l3.16 0 l0 10.4 l-3.16 0 l0 -1.8 c-0.2 0.5 -1.26 1.96 -3.22 1.96 z M59.379999999999995 9.6 l3.16 0 l0 10.4 l-3.16 0 l0 -1.04 c-0.14 0.36 -1.08 1.24 -2.68 1.24 c-2.38 0 -5.12 -1.7 -5.12 -5.42 c0 -3.58 2.74 -5.36 5.12 -5.36 c1.6 0 2.54 0.92 2.68 1.14 l0 -0.96 z M57.16 17.42 c1.3 0 2.36 -0.9 2.36 -2.64 c0 -1.68 -1.06 -2.58 -2.36 -2.58 c-1.36 0 -2.52 0.92 -2.52 2.58 c0 1.72 1.16 2.64 2.52 2.64 z M67.74 5.859999999999999 l0 14.14 l-3.16 0 l0 -14.14 l3.16 0 z M91.05999999999999 6 l0 14 l-3.32 0 l0 -6.76 l-2.86 6.76 l-2.78 0 l-2.82 -6.72 l0 6.72 l-3.32 0 l0 -14 l3.18 0 l4.38 9.72 l4.36 -9.72 l3.18 0 z M100.75999999999999 9.6 l3.16 0 l0 10.4 l-3.16 0 l0 -1.04 c-0.14 0.36 -1.08 1.24 -2.68 1.24 c-2.38 0 -5.12 -1.7 -5.12 -5.42 c0 -3.58 2.74 -5.36 5.12 -5.36 c1.6 0 2.54 0.92 2.68 1.14 l0 -0.96 z M98.53999999999999 17.42 c1.3 0 2.36 -0.9 2.36 -2.64 c0 -1.68 -1.06 -2.58 -2.36 -2.58 c-1.36 0 -2.52 0.92 -2.52 2.58 c0 1.72 1.16 2.64 2.52 2.64 z M110.82 8.26 c-0.9 0 -0.88 0.82 -0.88 1.02 l0 0.32 l2.16 0 l0 2.6 l-2.16 0 l0 7.8 l-3.18 0 l0 -7.8 l-1.42 0 l0 -2.6 l1.42 0 l0 -0.32 c0 -3.22 2.42 -3.62 3.68 -3.62 c1 0 1.98 0.22 2.72 0.7 l-1.06 2.18 c-0.58 -0.22 -0.8 -0.28 -1.28 -0.28 z M117.85999999999999 5.859999999999999 l0 2.66 l-3.16 0 l0 -2.66 l3.16 0 z M117.85999999999999 9.6 l0 10.4 l-3.16 0 l0 -10.4 l3.16 0 z M127.38 9.6 l3.16 0 l0 10.4 l-3.16 0 l0 -1.04 c-0.14 0.36 -1.08 1.24 -2.68 1.24 c-2.38 0 -5.12 -1.7 -5.12 -5.42 c0 -3.58 2.74 -5.36 5.12 -5.36 c1.6 0 2.54 0.92 2.68 1.14 l0 -0.96 z M125.16 17.42 c1.3 0 2.36 -0.9 2.36 -2.64 c0 -1.68 -1.06 -2.58 -2.36 -2.58 c-1.36 0 -2.52 0.92 -2.52 2.58 c0 1.72 1.16 2.64 2.52 2.64 z"></path></g>
			</g>
		</svg>
	